<?xml version="1.0" encoding="utf-8"?>
<!-- Generator: Adobe Illustrator 22.0.0, SVG Export Plug-In . SVG Version: 6.00 Build 0)  -->
<svg version="1.1" id="Слой_1" xmlns="http://www.w3.org/2000/svg" xmlns:xlink="http://www.w3.org/1999/xlink" x="0px" y="0px"
	 viewBox="0 0 316.3 233.9" enable-background="new 0 0 316.3 233.9" xml:space="preserve">
<polygon fill="#D89F23" points="200.6,44.7 163,43.3 165.6,36.9 199.6,34.1 "/>
<polygon fill="#D89F23" points="242.4,71.4 234.5,76.6 237,66.7 241.6,66.8 "/>
<polygon fill="#D89F23" points="229,84.8 217.3,84.2 223.5,51 234.4,77.5 "/>
<polygon fill="#E4C125" points="223.9,50.2 219.9,64.3 213,36 "/>
<polygon fill="#E6C025" points="216.8,58.9 205.6,55.7 204.6,33.1 "/>
<polygon fill="#D89F23" points="200.9,45.9 197.5,30.7 201.9,34 202.5,37.3 "/>
<polygon fill="#E6C025" points="219.9,64.3 215.4,62.6 207.9,57 217.1,60.1 "/>
<polygon fill="#BC232E" points="213.3,99.1 207,99 215.9,89.3 225.4,89.5 "/>
<polygon fill="#BC232E" points="197.5,108.3 186.5,105.6 194.5,95.1 207,93.5 218.2,98 "/>
<polygon fill="#7E202F" points="187.3,97.9 171.6,98.5 191.9,89.4 209.1,90.3 214.1,95.3 "/>
<polygon fill="#D89F23" points="241.7,104.9 231.1,91.5 241.7,85.5 248.1,90.7 "/>
<polygon fill="#D89F23" points="205.2,46 205.5,54.3 199,45.8 200.6,44.7 202.8,33.4 "/>
<polygon fill="#4F77B1" points="220.8,140.5 199.9,136.8 177.8,121.5 199,119.9 214.4,136.7 "/>
<polygon fill="#7E202F" points="213.3,100.9 213.4,98.6 224.9,89.3 227.6,92.2 "/>
<polygon fill="#D89F23" points="251.4,71.9 253.1,83.9 245,77.2 240.7,69.4 239,72.3 238.3,59.4 245.4,51.8 "/>
<polygon fill="#D89F23" points="260.8,60.2 251.4,71.9 245.4,51.8 254.3,50.8 "/>
<polygon fill="#D89F23" points="245,77.2 234.8,79 241.4,70.5 "/>
<polygon fill="#D89F23" points="253.1,83.9 251.4,71.9 257.3,64.6 261.7,72.1 261.1,75.4 256,80.8 "/>
<polygon fill="#E6C025" points="219.7,71.3 217.3,84.2 200.5,72.2 205.9,63.5 219.2,65.3 "/>
<polygon fill="#7E202F" points="217.3,84.2 220.6,84.3 217.5,91.5 213.6,86.3 200.4,81.2 198,83.7 198.5,79.7 201.4,75.7 "/>
<polygon fill="#D89F23" points="231.9,91.9 225.4,97.3 225.7,91.2 217.5,91.5 221.6,84.9 231,85.5 "/>
<polygon fill="#E6C025" points="231.5,93.8 228,85.3 229.9,85.4 "/>
<polygon fill="#D89F23" points="218,56.6 210.3,40.5 206.6,35.6 213,36 "/>
<polygon fill="#BC232E" points="204.4,90.7 188.9,88.1 201.4,83.2 216.1,86.7 211.7,94.8 "/>
<polygon fill="#7E202F" points="173.7,122.8 159.9,111 169,99.1 187.5,100.4 172.8,117.6 "/>
<polygon fill="#BC232E" points="175.5,123.6 174.3,119.6 183.9,103.2 197.2,109.5 211.1,125.6 "/>
<polygon fill="#7E202F" points="211.1,125.6 198.1,115.4 184.7,103.6 190.2,105.1 199.5,110 "/>
<polygon fill="#2F496B" points="225.5,144.8 207.5,133.2 197.3,126.1 213.3,125.7 "/>
<polygon fill="#4F77B1" points="218.3,144 189.6,136.8 175.5,123.6 197.2,127.2 "/>
<polygon fill="#BC232E" points="190.3,104.4 184.1,102.4 186.4,98.9 "/>
<polygon fill="#2F496B" points="170.2,156.1 161.3,153.8 155.4,149 153.1,146.7 174.3,145.4 213.3,146.9 "/>
<polygon fill="#7E202F" points="200.5,110.2 199.7,106.9 212.4,101.7 "/>
<polygon fill="#2F496B" points="218.6,147.8 197.6,144.1 197.9,138.9 212.1,144.1 "/>
<polygon fill="#5374B5" points="163.4,155.7 157.2,159 152.7,155.1 158.5,160.1 159.3,170.9 162.3,176.9 157.1,177.5 149.1,170.4 
	145.4,155.2 143.2,152.2 141.7,146.3 145.3,144.1 151.5,145.2 "/>
<polygon fill="#5374B5" points="218.6,147.8 187.9,147.4 183.4,144.2 190.5,138.8 207.6,145.5 "/>
<polygon fill="#5374B5" points="220.3,157.8 162.2,157.6 194.5,147.7 222.8,148.7 "/>
<polygon fill="#5374B5" points="184.7,147.9 181.3,142.3 155.6,145.5 "/>
<polygon fill="#4F77B1" points="224.6,151.5 224.2,143.5 194.5,132.1 "/>
<polygon fill="#2F496B" points="160.5,153.1 151.5,145.2 145.3,144.1 "/>
<polygon fill="#2F496B" points="159.3,170.9 156.8,166.7 152.7,155.1 158.5,160.1 "/>
<polygon fill="#D89F23" points="257.8,115.7 243.5,104.2 244.1,93.5 256.4,100.6 "/>
<polygon fill="#E6C025" points="263.1,118 259.1,119.3 257.9,106.6 259.5,104.3 "/>
<polygon fill="#E3B224" points="253.1,110.6 255.4,117 244.6,107.4 "/>
<polygon fill="#E6C025" points="265.4,114.8 262.4,115.5 260,103.4 279.6,85.2 "/>
<polygon fill="#E6C025" points="245.8,95.9 248.8,90.6 257.8,101.2 "/>
<polygon fill="#2F496B" points="221.7,157.1 221.6,147.6 218,141.2 227.4,147.2 "/>
<polygon fill="#D89F23" points="277.8,86.3 263.1,101.3 267.2,93.9 271.5,83.8 278.4,84.9 "/>
<polygon fill="#D89F23" points="278.5,84.1 272.1,83.3 269.5,79.9 282.7,77.1 "/>
<polygon fill="#D89F23" points="271.8,79 269.6,79.2 269.6,74.8 272,76.2 "/>
<polygon fill="#E6C025" points="276,78.5 271.9,79 273.8,71.7 282,75.9 "/>
<polygon fill="#E6C025" points="275.3,70.7 273.8,70.6 274.6,65.9 276.1,66.1 "/>
<rect x="274.9" y="66" transform="matrix(0.2487 -0.9686 0.9686 0.2487 144.2552 320.0127)" fill="#E6C025" width="7" height="2"/>
<polygon fill="#E6C025" points="280.3,73.9 278.6,73.3 280.8,66.4 282.4,66.9 "/>
<polygon fill="#E6C025" points="283.4,75.3 281.9,74.7 283.3,70.7 284.8,71.3 "/>
<polygon fill="#D89F23" points="271.5,75.3 269.6,74.8 271.3,71.9 271.9,73.6 "/>
<polygon fill="#E6C025" points="206.9,61.8 207,53.9 213.9,63 "/>
<polygon fill="#D89F23" points="265.4,114.8 273.8,90.8 279.6,85.2 "/>
<polygon fill="#D89F23" points="275.5,81.6 270.8,79.6 272.1,79.3 276,78.5 "/>
<polygon fill="#D89F23" points="271.8,79 270.6,79.1 270.3,75.2 272,76.2 "/>
<polygon fill="#D89F23" points="271.5,75.3 270.8,75.1 271.3,71.9 271.9,73.6 "/>
<polygon fill="#BC232E" points="153.2,142.5 137.2,139.4 161.1,115.7 175.3,125 "/>
<polygon fill="#7E202F" points="153.2,144.5 153.2,142.5 175.4,126.7 177,130.8 "/>
<polygon fill="#BC232E" points="138.6,145.4 131.6,145.3 137.9,140.9 150.7,142.4 "/>
<polygon fill="#7E202F" points="99.9,175.4 116,156.1 124.2,148.1 139.9,145.4 142.6,153.2 "/>
<polygon fill="#BC232E" points="104.5,179.1 93.6,185.9 100.8,177.4 117.4,168.6 "/>
<polygon fill="#BC232E" points="120.9,164.9 119.4,169.6 131.7,161.7 "/>
<polygon fill="#BC232E" points="61.3,187.3 59.7,192 66.1,185 "/>
<polygon fill="#BC232E" points="74.7,168.9 77.7,171.9 79.5,166.5 "/>
<polygon fill="#BC232E" points="39.8,185.2 42.8,188.2 44.6,182.8 "/>
<polygon fill="#7E202F" points="120.9,142.3 123.8,145.4 125.7,140 "/>
<polygon fill="#7E202F" points="85.7,152.4 88.6,155.5 91.6,151.8 "/>
<polygon fill="#BC232E" points="69,152.1 78,151.2 80.6,147.2 "/>
<polygon fill="#BC232E" points="105.1,156.6 103.6,161.3 115.9,153.3 "/>
<polygon fill="#BC232E" points="85.1,163.4 94.8,164.9 98.9,160.7 "/>
<polygon fill="#7E202F" points="56.2,99.9 56.2,105.2 64.5,107.5 "/>
<polygon fill="#BC232E" points="90,166.7 88.5,171.4 93,170.4 "/>
<polygon fill="#BC232E" points="134.2,132.9 129,144.1 137.2,136.7 "/>
<polygon fill="#BC232E" points="107.9,112.6 102.7,123.8 110.9,116.3 "/>
<polygon fill="#BC232E" points="72.5,191 71.9,202.5 74.2,198.3 "/>
<polygon fill="#7E202F" points="132.8,125.3 130,133.7 151.9,119.5 "/>
<polygon fill="#7E202F" points="134.7,92.2 141.2,98.2 115.1,96.4 "/>
<polygon fill="#7E202F" points="118.7,98 125.2,104 99.2,102.2 "/>
<polygon fill="#7E202F" points="176.5,91.6 170.7,87.5 187.5,89.2 "/>
<polygon fill="#7E202F" points="80.6,129.5 74.9,125.4 89.5,123.8 "/>
<polygon fill="#7E202F" points="57.8,118 57.8,123.2 66.1,125.5 "/>
<polygon fill="#7E202F" points="74,123.3 68.3,119.2 82.9,117.6 "/>
<polygon fill="#7E202F" points="120.4,111.2 127.1,105.5 131.4,108.7 "/>
<polygon fill="#7E202F" points="95.6,119.5 98.6,116.9 100.5,118.4 "/>
<polygon fill="#7E202F" points="94.2,149.3 97.2,146.8 99.1,148.2 "/>
<polygon fill="#BC232E" points="52.9,198.4 59,196 59.9,198.8 "/>
<polygon fill="#7E202F" points="65.1,202.1 68.1,199.6 70,201 "/>
<polygon fill="#BC232E" points="38.7,205.6 41.7,203.1 43.6,204.5 "/>
<polygon fill="#BC232E" points="43.3,165.4 46.3,162.9 48.2,164.3 "/>
<polygon fill="#7E202F" points="131.2,105.2 135.1,105.1 135.7,107.4 "/>
<polygon fill="#BC232E" points="158.2,80.1 162.1,80 162.7,82.3 "/>
<polygon fill="#D89F23" points="191.6,52.3 187.7,51.7 186.9,54 "/>
<polygon fill="#7E202F" points="152.8,108 148.9,107.4 148.1,109.7 "/>
<polygon fill="#D89F23" points="131.4,51.1 135.3,50.9 135.9,53.2 "/>
<polygon fill="#D89F23" points="120.3,47.2 130.2,47.1 130.8,49.4 "/>
<polygon fill="#D89F23" points="134.4,38.9 142.1,37.1 140.3,39.3 "/>
<polygon fill="#D89F23" points="191.9,74.1 190.9,70.7 197.5,72.8 "/>
<polygon fill="#D89F23" points="184.9,87.8 190.4,81.6 196.9,83.7 "/>
<polygon fill="#E6C025" points="203,63.8 202.6,53.4 206.6,62.6 "/>
<polygon fill="#BC232E" points="171.2,82.2 171.9,78.7 176.7,83.7 "/>
<polygon fill="#D89F23" points="88.7,52 87.6,48.7 94.2,50.8 "/>
<polygon fill="#BC232E" points="76.6,177.3 71.3,187.1 76,183.3 "/>
<polygon fill="#7E202F" points="94.5,169.9 91.9,182 109.5,161.6 "/>
<polygon fill="#7E202F" points="80.5,177 80.8,185.7 91,173.8 "/>
<polygon fill="#BC232E" points="77.8,186.5 75.5,196.4 82.6,196.8 89.5,180 "/>
<polygon fill="#7E202F" points="187.1,116.8 177.2,114.5 176.8,121.6 193.5,128.5 "/>
<polygon fill="#7E202F" points="78.3,210.4 74.9,207.7 75.2,202.4 83,200.1 "/>
<polygon fill="#E6C025" points="164.1,43.3 157.8,49.8 153.8,48 158,40.3 "/>
<polygon fill="#7E202F" points="85.5,196.9 85.6,193.7 89.3,183.8 93.8,183 "/>
<polygon fill="#E6C025" points="255.4,63.7 252.6,64.3 249.8,71.4 249.3,62.4 252.8,60.8 "/>
<polygon fill="#E6C025" points="234.4,77.5 229,64.4 223.5,51 234.8,54.7 237,66.7 "/>
<polygon fill="#E4C125" points="234.8,54.7 229.9,64.3 223.5,51 "/>
<polygon fill="#E6C025" points="264.6,63.3 260.8,60.2 254.3,50.7 262.9,59.3 "/>
<polygon fill="#E6C025" points="261,70.9 257.3,64.6 260.8,60.2 264.6,63.3 263.4,68.3 "/>
<polygon fill="#E4C125" points="261.7,72.1 251.4,71.9 257.8,70.5 260.2,67.6 "/>
<polygon fill="#E6C025" points="257.3,79.4 257.3,76.1 261.1,75.4 "/>
<polygon fill="#E6C025" points="231.5,93.8 229.9,85.4 236.6,79.1 244.8,87.2 247.9,88.5 "/>
<polygon fill="#D89F23" points="244.8,87.2 236.6,79.1 244,80.9 247.9,88.5 "/>
<polygon fill="#E6C025" points="246.8,78.7 240.6,79.7 245,77.2 "/>
<polygon fill="#E6C025" points="278.5,84.1 277.1,82.1 281.6,77.3 282.7,77.1 "/>
<polygon fill="#E4C125" points="151.1,46.8 145.8,49 146,46.4 151.3,42.6 "/>
<polygon fill="#E6C025" points="145,45.2 141.9,47.3 144.8,41 146.7,38.2 "/>
<polygon fill="#E6C025" points="152.6,42 145,45.2 148,37.4 152.6,36.3 "/>
<polygon fill="#E6C025" points="145,49.4 142.3,52.4 141.8,51.2 144.9,46.6 "/>
<polygon fill="#E6C025" points="163,43.3 162.5,39.7 163.2,35.8 165.5,34.8 "/>
<polygon fill="#D89F23" points="162.3,35.8 153.8,35.9 150.3,42.5 151.5,46.6 163,43.3 "/>
<polygon fill="#E6C025" points="152.6,55.6 152.1,52.4 153.9,49 156.9,49.8 "/>
<polygon fill="#E6C025" points="194.7,37.1 166.7,38.4 165.6,36.9 196.6,32.2 "/>
<polygon fill="#E6C025" points="168.8,35.9 163.8,33.1 179.3,33.4 "/>
<polygon fill="#D89F23" points="162.5,37.9 153.8,35.9 162.3,35.8 "/>
<polygon fill="#D89F23" points="214.4,53.6 207.8,47.6 204.6,33.1 209.6,41.8 "/>
<polygon fill="#7E202F" points="177.3,107.8 168.9,100.8 169,99.1 184.2,101.1 "/>
<polygon fill="#2F496B" points="206.2,140.9 189.6,136.8 175.5,123.6 188.4,131.2 "/>
<polygon fill="#2F496B" points="220.3,157.8 162.2,157.6 179.4,153.7 "/>
</svg>
