<?xml version="1.0" encoding="utf-8"?>
<!-- Generator: Adobe Illustrator 22.0.0, SVG Export Plug-In . SVG Version: 6.00 Build 0)  -->
<svg version="1.1" id="_x23_Layer_1" xmlns="http://www.w3.org/2000/svg" xmlns:xlink="http://www.w3.org/1999/xlink" x="0px"
	 y="0px" viewBox="0 0 170.5 57.5" enable-background="new 0 0 170.5 57.5" xml:space="preserve">
<g>
	<g>
		<linearGradient id="SVGID_1_" gradientUnits="userSpaceOnUse" x1="38.9816" y1="23.8358" x2="130.4501" y2="23.8358">
			<stop  offset="0" style="stop-color:#D24A43"/>
			<stop  offset="1" style="stop-color:#4D6AAF"/>
		</linearGradient>
		<path fill-rule="evenodd" clip-rule="evenodd" fill="url(#SVGID_1_)" d="M125.4,33.8V32c1.6-1.8,3.1-3.8,1.3-4.3
			c-0.4-0.1-0.9-0.2-1.3-0.3v-2.5c1.5,0.4,2.3,0.7,3.4,1.2c2,0.9,2.3,2,0.8,4C128.3,31.7,126.9,32.7,125.4,33.8L125.4,33.8z
			 M125.4,31.9c0.6-0.8,1.2-1.7,1.5-2.4c0.6-1.1-0.1-1.5-1.3-1.9l-0.2-0.1v0.2c0.2,0.1,0.4,0.1,0.5,0.2c1.5,0.4,0.5,2.2-0.5,3.7
			V31.9L125.4,31.9z M125.4,22.6v-3l0,0c1.5,2.5,2.1,2.5,3.2,1.3c0.6-0.7,1-1.4,1.3-1.8c0.3-0.4,0.7-0.7,0.4,0.6
			C129.6,22,127.9,24.6,125.4,22.6L125.4,22.6z M125.4,16.5v-4.6c1.4,0,2.5,1,2.5,2.3C127.9,15.4,126.7,16.5,125.4,16.5z
			 M125.4,11.9v4.6h0c-1.4,0-2.5-1-2.5-2.3C122.8,12.9,124,11.9,125.4,11.9L125.4,11.9L125.4,11.9L125.4,11.9z M125.4,19.6
			c-0.8-1.4-1.6-2.9-3-3.8c-1.6-1-4.2-1.5-6.2-0.9c-0.2,0.1-0.5,0.2-0.8,0.3v2.1c0.5-0.8,1.5-1.2,2.8-0.9c2.5,0.6,3.6,2.7,3.1,5.1
			c-0.5,2.2-1.5,5-3.3,7.4c-0.8,1-1.7,1.9-2.6,2.8v2c0.9-0.5,1.8-0.9,2.5-1.4c1.7-1.2,3.3-3,4.5-5c1,0.2,2,0.4,3,0.8v-0.2
			c-0.8-0.2-1.6-0.4-2.3-0.5l0.4,0c0.6,0.1,1.3,0.2,1.9,0.3v-2.5l-0.4-0.1c-1.7-0.4-0.7-2.1-0.7-3.3c0.4,0.4,0.7,0.8,1,1V19.6
			L125.4,19.6z M125.4,31.7v0.3l0,0l-0.1,0.1l0,0l0.1-0.1v1.8c-0.2,0.1-0.4,0.3-0.6,0.4c-2.3,1.5-2.5,1.1-1.7,0.2
			c0.2-0.2,0.3-0.4,0.5-0.6C123.7,33.7,124.5,32.8,125.4,31.7L125.4,31.7z M115.4,30.9v-0.4c0.2-0.2,0.4-0.4,0.6-0.6
			c2.4-2.4,4.5-6.3,4.6-9.4c0-1.2-0.4-2.2-1.4-3c-1.5-1.1-3.1-0.6-3.7,0.4v-0.3c0.7-0.9,2.2-1.5,3.7-0.6c1.2,0.7,1.8,1.6,1.8,2.8
			c0.2,3.3-2.4,7.7-4.5,9.9C116.1,30.2,115.8,30.6,115.4,30.9L115.4,30.9z M115.4,21.8v-0.1c0.6,0.3,1.4,0.4,2.1,0.2l0.1,0l0,0
			c-0.6,0.1-1.4,0-2.2-0.5v-1.6l0,0c0.5,0.6,1.3,1.1,2.1,1.2c1,0,1.1,0.5,0.7,0.7l0,0c-0.1,0.1-0.2,0.1-0.3,0.2
			c-0.3,0.1-0.6,0.2-1,0.2C116.4,22.1,115.9,22,115.4,21.8z M115.4,15.1v2.1c-0.2,0.3-0.3,0.7-0.3,1.2l0-0.2
			c0.1-0.2,0.2-0.4,0.3-0.5V18c-0.2,0.3-0.3,0.7-0.2,1.1c0,0.2,0.1,0.5,0.2,0.7v1.6c-0.1-0.1-0.2-0.1-0.3-0.2
			c-1-0.8-1.8-2.3-1.5-3.7c0.1-0.6,0.4-1.2,0.8-1.6l-0.1,0.1c-0.5,0.4-0.8,1-0.9,1.7c0,0,0,0,0,0.1v0c0,0.2-0.1,0.4-0.1,0.6
			c0,0.2,0,0.4,0,0.6c0.2,0.9,0.7,2,1.5,2.4c0.2,0.1,0.4,0.2,0.6,0.3v0.1c-0.4-0.1-0.8-0.3-1.1-0.6c-2.3-1.7-1.5-4.9,0.9-6
			C115.3,15.1,115.3,15.1,115.4,15.1L115.4,15.1z M115.4,30.5v0.4c-1.4,1.3-2.8,2.4-4.5,3.4l-0.4,0.2l0,0c1.7-0.8,3.4-1.8,4.9-3v2
			c-1.6,0.8-3.4,1.5-5.1,2.2l-0.2,0.1c-0.1,0-0.2,0-0.2,0l-1.8,0c0.7-2.2,0.7-4.1-1.2-5.7c-1.2-1-3.5-1-5.6-0.2v-1.5
			c2.7-1.1,5.7-1.2,7.2,0.1c1.9,1.6,2.3,3.5,1.9,5.6c0,0.1,0,0.2,0,0.2l0,0c0.5-0.3,1-0.7,1.5-1C113.2,32.5,114.4,31.5,115.4,30.5
			L115.4,30.5z M101.4,24.6v-1.7c0.8,0.5,1.7,0.8,3.1,0.8c1.6-0.1,2.3-0.3,2.7-0.2c0.5,0.1,0.5,0.7,0.3,0.8
			c-0.8,0.3-1.8,0.6-2.7,0.7C103.8,25,102.6,24.9,101.4,24.6L101.4,24.6z M101.4,20.7v-4.3l0.2,0.1c0.9,0.4,1.4,1.2,1.4,2.1
			C103,19.6,102.3,20.4,101.4,20.7z M101.4,16.5v4.3c-0.3,0.1-0.6,0.2-0.9,0.2c-0.4,0-0.8-0.1-1.1-0.3l-0.1,0l0.1,0.2
			c0.7,0.8,1.2,1.5,2,2v1.7c-0.6-0.2-1.1-0.4-1.6-0.6c-1.6-0.9-3-2.4-4.7-3.1v-3.6c0.5,0,0.9,0.1,1.4,0.2l0.1,0
			c0.5,0.2,1,0.4,1.3,0.7c0,0,0,0,0.1,0l0,0c0.1-0.6,0.5-1.1,1-1.4l0,0c-1.2-0.4-2.6-0.5-3.8-0.3v-0.3c1.9-0.5,4.3-0.4,5.9,0.1
			L101.4,16.5L101.4,16.5z M101.4,28.4v1.5c-1.2,0.5-2.3,1.2-3.1,2.1c-1.1,1.3-1.7,2.5-2,3.7l-1.1,0v-0.4c0.4-1.3,1.1-2.8,2.5-4.3
			C98.6,29.8,99.9,28.9,101.4,28.4L101.4,28.4z M95.2,32.3L95.2,32.3c7.3-6.2,4.1-6.7,0-7.2v2.2c0.1,0.3,0.1,0.6,0,1V32.3z
			 M68.1,27.9c1.4,0,2.5,1,2.5,2.3c0,1.3-1.1,2.3-2.5,2.3c-0.1,0-0.2,0-0.3,0v-4.5C67.9,27.9,68,27.9,68.1,27.9L68.1,27.9z
			 M95.2,16.2v0.3c-0.3,0-0.6,0.1-0.9,0.2l0-0.2C94.5,16.3,94.8,16.2,95.2,16.2L95.2,16.2z M95.2,17.2c-7.2-0.3-19.9,11.5-4.2,9.7
			c0.4,0,0.9-0.1,1.4-0.1c2.9,0,0.8,3.2-0.9,5.4c0,0,0,0,0,0l0,0c-0.1-1.3-0.7-2.6-2-3.7c-2.4-2-8.2-0.7-11,2.5l-0.1,0
			c-1.2-0.1-2.9,0.1-4.7,0.5l-0.1,0c1.3-0.4,2.7-0.7,4.1-0.9c0.9-0.1,0.9-0.7,0-0.6c-2.1,0.3-4.2,1.4-6.2,2
			c-0.6,0.2-1.1,0.4-1.7,0.6l-2,0.6v0.9c0.8-0.3,1.6-0.6,2.4-0.8c0.5-0.2,1-0.4,1.6-0.5c1.8-0.4,3.8-0.1,4.3,1.2
			c0.2,0.6,0,1.1-0.1,1.7l1.2,0c0.3-1.1,0.9-2.4,2-3.7c2.2-2.6,6.8-3.6,8.7-2c1.9,1.6,1.9,3.5,1.2,5.7l1.8,0c0.1,0,0.2,0,0.2,0l0,0
			c0.9-0.7,2.3-1.9,4.2-3.5v-4c-0.4,1.1-1.5,2.4-1.9,3c-0.5,0.7-1.2,1.6-1.8,2.4l0,0l0,0c0-0.4,0.1-0.7,0.1-1.1l0,0
			c1.1-1.3,2.3-2.7,2.8-4.4c0.3-1.2-0.7-1.7-2-1.6c-1.4,0.1-3.1,0.3-3.9,0.3c-0.2,0-0.4,0-0.6,0c-1-0.1-1.9-0.3-2.6-0.7
			c-3.1-1.6,1.3-5.3,2.9-6.3c1-0.7,2.3-1.4,3.7-1.9c0.3-0.1,1.1-0.4,1.7-0.5l-0.9,0.3c-0.4,0.1-0.7,0.3-1.1,0.5
			c-1.6,0.8-3.5,1.8-4.6,3.1c-3.3,3.8-1.6,5.1,1.1,5.5c1.3,0,2.7-0.1,4-0.2c0.3,0,0.3-0.1,0.6,0c1.5,0,1.6,0.2,1.8,0.2
			c0.4,0.1,0.6,0.3,0.7,0.5v-2.2c-1.1-0.1-2.3-0.3-3.4-0.5c-2.9-0.7-2.1-3.2,0.7-4.1l0.3,0c0.9-0.1,1.7,0.1,2.4,0.4V17.2L95.2,17.2z
			 M95.2,35.3v0.4l-0.1,0C95.1,35.5,95.1,35.4,95.2,35.3L95.2,35.3z M67.8,27v-1.4c0.8-0.1,1.6-0.2,2.2-0.1l0,0l-0.4-0.1
			c-0.6-0.1-1.2,0-1.8,0v-0.2c1.2-0.1,2.3,0.1,3.6,0.5c0.4,0.1,0.9,0.3,1.3,0.5c0.4,0.3,0.4,0.8-0.3,0.8l0,0c-0.4,0-1.1-0.1-2.7-0.2
			C69,26.8,68.4,26.9,67.8,27z M67.8,32.5c-1.2-0.1-2.2-1.1-2.2-2.3c0-1.2,1-2.1,2.2-2.3V32.5L67.8,32.5z M67.8,25.2
			c-0.5,0-0.9,0.1-1.4,0.3c-1.7,0.4-3,1.3-4.3,2.3c-0.3,0.2-0.6,0.5-0.8,0.7c-1.6,1.7-2.5,3.5-6,3.2c-0.3,0-0.6-0.1-0.9-0.3
			c-4.4-2.6-11.7-3.7-15,0.3c-0.3,0.4-0.8,1.2-0.1,1.5c0.2,0.1,0.4,0,0.6-0.1c0.6-0.5,1-0.9,1.6-1.3c1.5-1.1,3.8-1.5,5.7-1.6
			c2.3-0.1,5.1,0.3,7.1,1.2L54,31.5c-0.8-0.2-1.6-0.4-2.5-0.5c-3.1-0.4-6.3,0.2-9.1,1.8c-1.8,1-1.9,3,1.4,2.7
			c3.6-0.9,7.4-4.1,11.3-1.4c4.1,2.8,8.3,1.6,12.6,0.2v-0.9l-1.2,0.4c-2,0.2-3.7-0.7-2.6-3.2c0.7-1.6,1.8-3,3.8-3.5v-1.4
			c-1,0.2-2,0.5-2.8,0.9c-3.4,1.9-4.1,5.4-8.3,5.4l0.2,0c2.5-0.3,3.5-1.7,4.7-3.1c1.7-1.7,3.4-2.9,5.6-3.3c0.2,0,0.4-0.1,0.6-0.1
			V25.2z"/>
		<linearGradient id="SVGID_2_" gradientUnits="userSpaceOnUse" x1="13.3514" y1="35.7506" x2="156.2207" y2="35.7506">
			<stop  offset="0" style="stop-color:#D24A43"/>
			<stop  offset="1" style="stop-color:#4D6AAF"/>
		</linearGradient>
		<rect x="13.4" y="35.5" fill="url(#SVGID_2_)" width="142.9" height="0.5"/>
	</g>
	<linearGradient id="SVGID_3_" gradientUnits="userSpaceOnUse" x1="13.4568" y1="41.9766" x2="156.1676" y2="41.9766">
		<stop  offset="0" style="stop-color:#D24A43"/>
		<stop  offset="1" style="stop-color:#4D6AAF"/>
	</linearGradient>
	<path fill="url(#SVGID_3_)" d="M129.8,43.7v-0.5h1c1,0,1.2-0.2,1.2-1.1v-1.5c0-0.9-0.3-1.1-1.2-1.1l0,0h-1V39h1
		c1.1,0,1.7,0.3,1.7,1.6v1.4c0,1.3-0.4,1.6-1.7,1.6l0,0H129.8L129.8,43.7z M138.5,42.4L138.5,42.4c0,0.9-0.5,1.3-1.7,1.3h-2
		c-1.2,0-1.7-0.5-1.7-1.6v-1.3c0-1.2,0.5-1.7,1.7-1.7h2c1.1,0,1.7,0.4,1.7,1.3H138c0-0.5-0.3-0.8-1.2-0.8h-2c-0.9,0-1.2,0.3-1.2,1.2
		V42c0,0.9,0.3,1.2,1.2,1.2h2c0.9,0,1.2-0.3,1.2-0.8H138.5L138.5,42.4z M144.5,42.4L144.5,42.4c0,0.9-0.5,1.3-1.7,1.3h-2
		c-1.2,0-1.7-0.5-1.7-1.6v-1.3c0-1.2,0.5-1.7,1.7-1.7h2c1.1,0,1.7,0.4,1.7,1.3H144c0-0.5-0.3-0.8-1.2-0.8h-2c-0.9,0-1.2,0.3-1.2,1.2
		V42c0,0.9,0.3,1.2,1.2,1.2h2c0.9,0,1.2-0.3,1.2-0.8H144.5L144.5,42.4z M145.7,43.3L145.7,43.3L145.7,43.3l3.7-4.2h0.9v4.6h-0.5
		v-4.2h-0.2l-3.6,4.2h-0.8v-4.6h0.5V43.3L145.7,43.3z M151.6,43.3L151.6,43.3L151.6,43.3l3.7-4.2h0.9v4.6h-0.5v-4.2h-0.2l-3.6,4.2
		h-0.8v-4.6h0.5V43.3z M129.8,39v0.5h-1c-0.9,0-1.2,0.2-1.2,1.1v1.5c0,0.9,0.3,1.1,1.2,1.1h1v0.5h-1c-1.2,0-1.7-0.4-1.7-1.6v-1.4
		c0-1.2,0.4-1.6,1.7-1.6H129.8L129.8,39z M124.1,41.8v-0.5h0.9c0.7,0,0.9-0.2,0.9-0.9c0-0.7-0.3-0.9-1-0.9h-0.9v-0.5h0.7
		c1.1,0,1.6,0.4,1.6,1.4c0,1-0.5,1.3-1.6,1.3H124.1z M124.1,39.1v0.5h-1.9v1.8l0,0h1.9v0.5h-1.9v1.9l0,0h-0.5v-4.6H124.1L124.1,39.1
		z M115.3,42.5v-0.5h1.4l0,0l-1.4-2.6l0,0v-0.3h0.4l2.4,4.6h-0.6l-0.6-1.2H115.3z M115.3,39.1v0.3l-1.4,2.6h1.4v0.5h-1.6l-0.6,1.2
		h-0.5l0,0l2.4-4.6H115.3L115.3,39.1z M103.7,43.7v-0.5h1c1,0,1.2-0.2,1.2-1.1v-1.5c0-0.9-0.3-1.1-1.2-1.1l0,0h-1V39h1
		c1.1,0,1.7,0.3,1.7,1.6v1.4c0,1.3-0.4,1.6-1.7,1.6l0,0H103.7L103.7,43.7z M107.6,43.7L107.6,43.7h-0.5v-4.6h0.5v2h4.1v-2h0.5v4.6
		h-0.5v-2.1h-4.1V43.7z M103.7,39v0.5h-1c-0.9,0-1.2,0.2-1.2,1.1v1.5c0,0.9,0.3,1.1,1.2,1.1h1v0.5h-1c-1.2,0-1.7-0.4-1.7-1.6v-1.4
		c0-1.2,0.4-1.6,1.7-1.6H103.7L103.7,39z M89.8,43.7v-0.2l0.1,0.2H89.8L89.8,43.7z M89.8,39.5H92v4.1h0.5v-4.1h2.2v-0.5l0,0h-4.8
		V39.5L89.8,39.5z M96.1,39.6L96.1,39.6v3c0,0.8-0.4,1.1-1,1.1h-0.2v-0.5h0.3c0.2,0,0.5-0.1,0.5-0.6v-3.5h4.7v4.6h-0.5v-4.1H96.1z
		 M89.8,39.1v0.5h-0.1v-0.5H89.8L89.8,39.1z M89.8,43.4l-2.3-4.4h-0.4v0.3l1.4,2.6l0,0h-1.4v0.5h1.6l0.6,1.2h0.4V43.4z M87.2,39.1
		v0.3l0,0l-1.4,2.6h1.4v0.5h-1.6L85,43.7h-0.5l0,0l2.4-4.6H87.2L87.2,39.1z M76,41.8v-0.5h0.9c0.7,0,0.9-0.2,0.9-0.9
		c0-0.7-0.3-0.9-1-0.9H76v-0.5h0.7c1.1,0,1.6,0.4,1.6,1.4c0,1-0.5,1.3-1.6,1.3H76L76,41.8z M79.5,43.3L79.5,43.3L79.5,43.3l3.7-4.2
		h0.9v4.6h-0.5v-4.2h-0.2l-3.6,4.2H79v-4.6h0.5V43.3z M76,39.1v0.5h-1.9v1.8l0,0H76v0.5h-1.9v1.9l0,0h-0.5v-4.6H76L76,39.1z
		 M61.8,41.8v-0.5h1.9v-1.8l0,0h-1.9v-0.5h2.4v4.6h-0.5v-1.9H61.8L61.8,41.8z M73.1,39.1L73.1,39.1v0.5h-2.2v4.1h-0.5v-4.1h-2.2
		v-0.5H73.1z M61.8,39.1v0.5h-0.9c-0.7,0-0.9,0.2-0.9,1c0,0.7,0.3,0.8,1,0.8h0.9v0.5h-0.4l0,0l-1.5,1.9h-0.7l1.6-1.9
		c-0.9,0-1.4-0.4-1.4-1.3c0-1,0.5-1.4,1.6-1.4H61.8L61.8,39.1z M44.3,42.5v-0.5h1.4l0,0l-1.4-2.6v-0.3h0.4l2.4,4.6h-0.6l-0.6-1.2
		H44.3L44.3,42.5z M52.1,43.2L52.1,43.2v-4.1h0.5v4.1H53v1.7h-0.5v-1.2h-5v-4.6H48v4.1H52.1L52.1,43.2z M54.2,43.3L54.2,43.3
		L54.2,43.3l3.7-4.2h0.9v4.6h-0.5v-4.2h-0.2l-3.6,4.2h-0.8v-4.6h0.5V43.3z M44.3,39.1v0.3l-1.4,2.6h1.4v0.5h-1.6l-0.6,1.2h-0.4v-0.2
		l2.3-4.4H44.3L44.3,39.1z M41.6,41.1c0.1-0.2,0.1-0.4,0.1-0.6c0-0.3,0-0.5-0.1-0.6V41.1z M41.6,39.9v1.3c-0.2,0.5-0.7,0.6-1.5,0.6
		h-0.7v-0.5h0.9c0.7,0,0.9-0.2,0.9-0.9c0-0.7-0.3-0.9-1-0.9h-0.9v-0.5h0.7C41,39.1,41.4,39.3,41.6,39.9L41.6,39.9z M41.6,43.5v0.2
		h-0.1l0,0L41.6,43.5z M39.4,39.1v0.5h-1.9v1.8l0,0h1.9v0.5h-1.9v1.9l0,0H37v-4.6H39.4L39.4,39.1z M28.6,43.7v-0.5h2v-3.7l0,0h-2
		v-0.5h2.5v4.1l0,0h0.4v1.7H31v-1.2H28.6L28.6,43.7z M32.1,39.1L32.1,39.1h4.1v0.5h-3.6v1.5h3.5v0.5h-3.5v1.7h3.6v0.5h-4.1V39.1z
		 M18.3,39.4L18.3,39.4c1.4,0,1.8,0.5,1.8,1.6v0.6c0,1.2-0.5,1.6-1.7,1.6h-0.1v-0.5h0.1c0.9,0,1.2-0.2,1.2-1.1V41
		c0-0.9-0.4-1.1-1.2-1.1h-0.1V39.4L18.3,39.4z M28.6,39.1v0.5H27v2.4c0,0.5-0.1,1.1-0.5,1.3h2v0.5h-2.4v1.2h-0.5v-1.7H26
		c0.4-0.3,0.6-0.6,0.6-1.2v-3H28.6L28.6,39.1z M20.9,39.1L20.9,39.1H25v0.5h-3.6v1.5h3.5v0.5h-3.5v1.7H25v0.5h-4.1V39.1z M17,39v0.4
		h1.3v0.5H17v2.9l0,0h1.3v0.5H17v0.5h-0.5v-0.5h-1.3v-0.5h1.3v-2.9l0,0h-1.3v-0.5h1.3V39H17z M15.2,43.2L15.2,43.2
		c-1.3,0-1.8-0.4-1.8-1.6v-0.6c0-1.2,0.4-1.6,1.7-1.6h0.1v0.5h-0.1c-0.9,0-1.2,0.2-1.2,1.1v0.6c0,0.9,0.3,1.1,1.2,1.1h0.1V43.2z"/>
</g>
</svg>
